<svg xmlns="http://www.w3.org/2000/svg" viewBox="0 0 1200 760">
  <defs><linearGradient id="g" x1="0" y1="0" x2="1" y2="1"><stop stop-color="#eaf3ef"/><stop offset="1" stop-color="#d8e7f2"/></linearGradient></defs>
  <rect width="1200" height="760" rx="34" fill="url(#g)"/>
  <path d="M115 560 C250 420 305 470 430 320 S720 180 875 265 S1040 355 1090 190" fill="none" stroke="#1d5f74" stroke-width="7" stroke-linecap="round" opacity=".85"/>
  <path d="M120 260 C290 345 340 230 480 275 S665 450 800 390 S985 300 1090 425" fill="none" stroke="#8c5d2a" stroke-width="5" stroke-linecap="round" opacity=".65"/>
  <g fill="#ffffff" stroke="#1d5f74" stroke-width="5">
    <circle cx="210" cy="466" r="22"/><circle cx="420" cy="322" r="22"/><circle cx="640" cy="235" r="22"/><circle cx="875" cy="265" r="22"/><circle cx="1035" cy="250" r="22"/>
  </g>
  <g fill="#2f7d55" opacity=".9"><circle cx="316" cy="192" r="36"/><circle cx="765" cy="535" r="48"/><circle cx="940" cy="470" r="28"/><circle cx="155" cy="315" r="24"/></g>
  <rect x="92" y="82" width="420" height="92" rx="18" fill="#fff" opacity=".88"/>
  <text x="122" y="128" font-family="Arial, sans-serif" font-size="26" font-weight="700" fill="#18343b">Placeholder: map / fieldwork visual</text>
  <text x="122" y="158" font-family="Arial, sans-serif" font-size="18" fill="#49636a">Replace this SVG with a research image later.</text>
</svg>
